<svg height="512pt" viewBox="0 0 512 512.00113" width="512pt" xmlns="http://www.w3.org/2000/svg"><path d="m504.5625 261.699219c0 134.132812-108.734375 242.867187-242.867188 242.867187-134.128906 0-242.867187-108.734375-242.867187-242.867187 0-134.132813 108.738281-242.867188 242.867187-242.867188 134.132813 0 242.867188 108.734375 242.867188 242.867188zm0 0" fill="#596673"/><path d="m261.695312 443.597656c-100.296874 0-181.894531-81.601562-181.894531-181.898437 0-100.300781 81.597657-181.898438 181.894531-181.898438 100.300782 0 181.898438 81.597657 181.898438 181.898438 0 100.296875-81.597656 181.898437-181.898438 181.898437zm0 0" fill="#7ab7d1"/><path d="m261.695312 382.625c-66.679687 0-120.925781-54.246094-120.925781-120.925781 0-66.679688 54.25-120.925781 120.925781-120.925781 66.679688 0 120.925782 54.246093 120.925782 120.925781 0 66.679687-54.246094 120.925781-120.925782 120.925781zm0 0" fill="#fb7073"/><path d="m261.695312 321.652344c-33.058593 0-59.953124-26.894532-59.953124-59.953125 0-33.058594 26.894531-59.957031 59.953124-59.957031 33.0625 0 59.957032 26.898437 59.957032 59.957031 0 33.058593-26.898438 59.953125-59.957032 59.953125zm0 0" fill="#f9db69"/><path d="m63.734375 38.589844 7.09375-22.425782c2.824219-8.933593 14.117187-11.691406 20.742187-5.066406l38.71875 38.71875c2.914063 2.910156 4.203126 7.074219 3.449219 11.121094l-7.488281 40.164062-48.503906-23.351562zm0 0" fill="#e98f5e"/><path d="m38.585938 63.738281-22.421876 7.09375c-8.9375 2.824219-11.695312 14.117188-5.070312 20.742188l38.71875 38.71875c2.914062 2.914062 7.074219 4.203125 11.125 3.449219l40.160156-7.492188-23.351562-48.5zm0 0" fill="#e98f5e"/><path d="m261.695312 236.550781-197.960937-197.960937-25.148437 25.148437 197.960937 197.960938c6.945313 6.945312 18.203125 6.945312 25.148437 0 6.945313-6.945313 6.945313-18.203125 0-25.148438zm0 0" fill="#f89f6f"/><path d="m44.4375 135.53125c.183594.179688.378906.339844.566406.515625-22.097656 38.046875-33.75 81.296875-33.75 125.585937 0 66.875 26.042969 129.746094 73.332032 177.035157 47.289062 47.289062 110.164062 73.332031 177.039062 73.332031 36.070312 0 70.878906-7.507812 103.464844-22.316406 31.472656-14.304688 59.222656-34.625 82.476562-60.398438 2.773438-3.074218 2.53125-7.820312-.546875-10.59375-3.074219-2.777344-7.820312-2.53125-10.59375.542969-21.867187 24.238281-47.957031 43.34375-77.542969 56.789063-30.621093 13.917968-63.34375 20.972656-97.257812 20.972656-62.867188 0-121.972656-24.484375-166.425781-68.9375-44.457031-44.453125-68.941407-103.558594-68.941407-166.429688 0-42.492187 11.402344-83.96875 33.011719-120.257812 1.707031-.054688 3.394531-.402344 5.066407-.714844l34.183593-6.375 12.554688 12.558594c-10.871094 14.222656-19.644531 29.832031-26.109375 46.496094-1.496094 3.863281.417968 8.210937 4.28125 9.707031 3.863281 1.5 8.210937-.417969 9.707031-4.28125 5.710937-14.71875 13.375-28.550781 22.832031-41.214844l32.96875 32.96875c-14.113281 21.105469-21.554687 45.550781-21.554687 71.113281 0 70.816406 57.609375 128.429688 128.425781 128.429688s128.425781-57.613282 128.425781-128.429688c0-70.8125-57.613281-128.425781-128.425781-128.425781-25.566406 0-50.007812 7.441406-71.113281 21.554687l-32.96875-32.96875c29.980469-22.335937 66.621093-34.554687 104.082031-34.554687 96.160156 0 174.394531 78.234375 174.394531 174.394531 0 96.164063-78.234375 174.394532-174.394531 174.394532-96.164062 0-174.394531-78.230469-174.394531-174.394532 0-11.882812 1.214843-23.78125 3.613281-35.375.839844-4.054687-1.769531-8.023437-5.828125-8.863281s-8.027344 1.769531-8.863281 5.824219c-2.605469 12.589844-3.925782 25.515625-3.925782 38.414062 0 104.4375 84.964844 189.398438 189.398438 189.398438s189.398438-84.960938 189.398438-189.398438c0-104.433594-84.964844-189.394531-189.398438-189.394531-41.421875 0-81.910156 13.753906-114.785156 38.851563l-12.5625-12.558594s6.765625-36.28125 6.765625-36.285156c.179687-.976563.289062-1.972657.324219-2.964844 36.289062-21.609375 77.765624-33.011719 120.257812-33.011719 62.867188 0 121.972656 24.480469 166.429688 68.9375 44.453124 44.453125 68.9375 103.558594 68.9375 166.425781 0 48.75-14.78125 95.527344-42.746094 135.269532-2.382813 3.390624-1.566406 8.066406 1.820312 10.453124 3.390625 2.382813 8.070313 1.570313 10.453125-1.820312 29.75-42.28125 45.476563-92.042969 45.476563-143.898438 0-66.878906-26.042969-129.75-73.332032-177.039062-47.289062-47.289062-110.164062-73.332031-177.039062-73.332031-44.28125 0-87.527344 11.648437-125.574219 33.742187-.171875-.1875-.34375-.378906-.527343-.5625 0 0-38.691407-38.691406-38.71875-38.714844-10.445313-10.449218-28.765626-5.925781-33.203126 8.109376l-6.539062 20.675781-22.554688 22.558593s-20.671874 6.535157-20.675781 6.539063c-14.050781 4.441406-18.535156 22.777344-8.113281 33.203125zm166.804688 111.476562s19.902343 19.898438 19.929687 19.929688c8.859375 8.859375 24.128906 9.632812 33.839844 1.730469 10.875-8.847657 12.128906-26.472657 2.617187-36.761719-.21875-.238281-20.628906-20.65625-20.628906-20.65625 4.710938-1.378906 9.601562-2.070312 14.625-2.070312 28.921875 0 52.453125 23.527343 52.453125 52.449218s-23.53125 52.453125-52.453125 52.453125-52.453125-23.53125-52.453125-52.453125c0-5.019531.695313-9.910156 2.070313-14.621094zm-147.578126-197.878906 192.65625 192.65625c3.890626 3.898438 3.90625 10.636719 0 14.539063-3.855468 3.851562-10.664062 4.011719-14.539062 0l-192.65625-192.652344zm197.960938 99.078125c62.542969 0 113.421875 50.882813 113.421875 113.425781 0 62.542969-50.878906 113.421876-113.421875 113.421876s-113.425781-50.882813-113.425781-113.425782c0-21.5625 5.984375-42.230468 17.382812-60.28125l33.957031 33.957032c-3.519531 8.296874-5.371093 17.292968-5.371093 26.324218 0 37.195313 30.261719 67.457032 67.457031 67.457032s67.457031-30.261719 67.457031-67.457032c0-37.195312-30.261719-67.453125-67.457031-67.453125-9.03125 0-18.027344 1.847657-26.324219 5.371094l-33.957031-33.957031c18.050781-11.398438 38.71875-17.382813 60.28125-17.382813zm-183.714844-129.847656c1.070313-3.382813 5.65625-4.65625 8.289063-2.023437 0 0 38.691406 38.691406 38.714843 38.714843 1.292969 1.292969 1.378907 2.75 1.378907 4.445313l-4.878907 26.164062-49.222656-49.222656zm-62.902344 63.128906c.203126-.820312.929688-2.808593 3.34375-3.574219l18.082032-5.71875 49.222656 49.222657-26.164062 4.878906c-1.585938.296875-3.304688-.234375-4.445313-1.375 0 0-38.71875-38.71875-38.71875-38.71875-1.792969-1.792969-1.519531-3.894531-1.320313-4.714844zm0 0"/></svg>